<?xml version="1.0" encoding="UTF-8" standalone="no" ?>
<!DOCTYPE svg PUBLIC "-//W3C//DTD SVG 1.1//EN" "http://www.w3.org/Graphics/SVG/1.1/DTD/svg11.dtd">
<svg xmlns="http://www.w3.org/2000/svg" xmlns:xlink="http://www.w3.org/1999/xlink" version="1.1" width="1080" height="1080" viewBox="0 0 1080 1080" xml:space="preserve">
<desc>Created with Fabric.js 5.2.4</desc>
<defs>
</defs>
<g transform="matrix(1 0 0 1 540 540)" id="72dde3d6-df8e-42f2-abf0-4feac123474f"  >
</g>
<g transform="matrix(1 0 0 1 540 540)" id="9ffe82d1-d7aa-4df1-bc06-37c0b1662d8a"  >
<rect style="stroke: none; stroke-width: 1; stroke-dasharray: none; stroke-linecap: butt; stroke-dashoffset: 0; stroke-linejoin: miter; stroke-miterlimit: 4; fill: rgb(255,255,255); fill-rule: nonzero; opacity: 1; visibility: hidden;" vector-effect="non-scaling-stroke"  x="-540" y="-540" rx="0" ry="0" width="1080" height="1080" />
</g>
<g transform="matrix(1 0 0 1 540 540)"  >
<path style="stroke: rgb(0,0,0); stroke-width: 0; stroke-dasharray: none; stroke-linecap: butt; stroke-dashoffset: 0; stroke-linejoin: miter; stroke-miterlimit: 4; fill: rgb(255,255,255); fill-rule: nonzero; opacity: 1;" vector-effect="non-scaling-stroke"  transform=" translate(-512, -512)" d="M 512 85.333333 C 347.050667 85.333333 213.33333299999998 219.072 213.33333299999998 384 C 213.33333299999998 548.949333 512 938.666667 512 938.666667 C 512 938.666667 810.666667 548.9493339999999 810.666667 384 C 810.666667 219.072 676.9493339999999 85.33333299999998 511.99999999999994 85.33333299999998 z M 512 533.333333 C 429.5254775426964 533.333333 362.66666699999996 466.4745224573036 362.66666699999996 384 C 362.66666699999996 301.5254775426964 429.5254775426964 234.66666700000002 512 234.66666700000002 C 594.4745224573036 234.66666700000002 661.333333 301.5254775426964 661.333333 384 C 661.333333 466.4745224573036 594.4745224573036 533.333333 512 533.333333 z" stroke-linecap="round" />
</g>
</svg>